<mxfile host="app.diagrams.net" agent="Mozilla/5.0 (X11; Ubuntu; Linux x86_64; rv:136.0) Gecko/20100101 Firefox/136.0" version="26.1.3">
  <diagram name="Page-1" id="e7e014a7-5840-1c2e-5031-d8a46d1fe8dd">
    <mxGraphModel dx="989" dy="545" grid="1" gridSize="10" guides="1" tooltips="1" connect="1" arrows="1" fold="1" page="1" pageScale="1" pageWidth="1169" pageHeight="826" background="none" math="0" shadow="0">
      <root>
        <mxCell id="0" />
        <mxCell id="1" parent="0" />
        <mxCell id="2" value="DataProcessing" style="swimlane;whiteSpace=wrap" parent="1" vertex="1">
          <mxGeometry x="164.5" y="128" width="280" height="570" as="geometry" />
        </mxCell>
        <mxCell id="5pYoA8IDufvgtYX2fxCb-80" value="" style="rounded=0;whiteSpace=wrap;html=1;" vertex="1" parent="2">
          <mxGeometry x="55.5" y="102" width="120" height="60" as="geometry" />
        </mxCell>
        <mxCell id="3" value="IDProcessing" style="swimlane;whiteSpace=wrap" parent="1" vertex="1">
          <mxGeometry x="444.5" y="128" width="280" height="570" as="geometry" />
        </mxCell>
        <mxCell id="5pYoA8IDufvgtYX2fxCb-42" style="edgeStyle=orthogonalEdgeStyle;rounded=0;orthogonalLoop=1;jettySize=auto;html=1;exitX=0.5;exitY=1;exitDx=0;exitDy=0;" edge="1" parent="3" source="13" target="5pYoA8IDufvgtYX2fxCb-57">
          <mxGeometry relative="1" as="geometry">
            <mxPoint x="140.01724137931024" y="102" as="targetPoint" />
          </mxGeometry>
        </mxCell>
        <mxCell id="5pYoA8IDufvgtYX2fxCb-58" value="Запрос к интерфейсу" style="edgeLabel;html=1;align=center;verticalAlign=middle;resizable=0;points=[];" vertex="1" connectable="0" parent="5pYoA8IDufvgtYX2fxCb-42">
          <mxGeometry x="-0.092" relative="1" as="geometry">
            <mxPoint as="offset" />
          </mxGeometry>
        </mxCell>
        <mxCell id="13" value="По" style="ellipse;shape=startState;fillColor=#000000;strokeColor=#ff0000;" parent="3" vertex="1">
          <mxGeometry x="125.5" y="40" width="30" height="30" as="geometry" />
        </mxCell>
        <mxCell id="5pYoA8IDufvgtYX2fxCb-60" style="edgeStyle=orthogonalEdgeStyle;rounded=0;orthogonalLoop=1;jettySize=auto;html=1;exitX=0.5;exitY=1;exitDx=0;exitDy=0;entryX=0.5;entryY=0;entryDx=0;entryDy=0;" edge="1" parent="3" source="5pYoA8IDufvgtYX2fxCb-57" target="5pYoA8IDufvgtYX2fxCb-59">
          <mxGeometry relative="1" as="geometry" />
        </mxCell>
        <mxCell id="5pYoA8IDufvgtYX2fxCb-61" value="Параметры методов" style="edgeLabel;html=1;align=center;verticalAlign=middle;resizable=0;points=[];" vertex="1" connectable="0" parent="5pYoA8IDufvgtYX2fxCb-60">
          <mxGeometry x="-0.2207" y="-2" relative="1" as="geometry">
            <mxPoint as="offset" />
          </mxGeometry>
        </mxCell>
        <mxCell id="5pYoA8IDufvgtYX2fxCb-57" value="Разгрузка входных параметров" style="rounded=0;whiteSpace=wrap;html=1;" vertex="1" parent="3">
          <mxGeometry x="80.5" y="182" width="120" height="60" as="geometry" />
        </mxCell>
        <mxCell id="5pYoA8IDufvgtYX2fxCb-76" style="edgeStyle=orthogonalEdgeStyle;rounded=0;orthogonalLoop=1;jettySize=auto;html=1;entryX=0.5;entryY=0;entryDx=0;entryDy=0;" edge="1" parent="3" source="5pYoA8IDufvgtYX2fxCb-59" target="5pYoA8IDufvgtYX2fxCb-75">
          <mxGeometry relative="1" as="geometry" />
        </mxCell>
        <mxCell id="5pYoA8IDufvgtYX2fxCb-78" value="Нет" style="edgeLabel;html=1;align=center;verticalAlign=middle;resizable=0;points=[];" vertex="1" connectable="0" parent="5pYoA8IDufvgtYX2fxCb-76">
          <mxGeometry x="-0.5015" y="1" relative="1" as="geometry">
            <mxPoint y="-11" as="offset" />
          </mxGeometry>
        </mxCell>
        <mxCell id="5pYoA8IDufvgtYX2fxCb-77" style="edgeStyle=orthogonalEdgeStyle;rounded=0;orthogonalLoop=1;jettySize=auto;html=1;entryX=0.5;entryY=0;entryDx=0;entryDy=0;" edge="1" parent="3" source="5pYoA8IDufvgtYX2fxCb-59" target="5pYoA8IDufvgtYX2fxCb-74">
          <mxGeometry relative="1" as="geometry" />
        </mxCell>
        <mxCell id="5pYoA8IDufvgtYX2fxCb-79" value="Да" style="edgeLabel;html=1;align=center;verticalAlign=middle;resizable=0;points=[];" vertex="1" connectable="0" parent="5pYoA8IDufvgtYX2fxCb-77">
          <mxGeometry x="-0.5561" y="-3" relative="1" as="geometry">
            <mxPoint y="-13" as="offset" />
          </mxGeometry>
        </mxCell>
        <mxCell id="5pYoA8IDufvgtYX2fxCb-59" value="Запрос содержит поиск?" style="rhombus;whiteSpace=wrap;html=1;" vertex="1" parent="3">
          <mxGeometry x="100.5" y="292" width="80" height="80" as="geometry" />
        </mxCell>
        <mxCell id="5pYoA8IDufvgtYX2fxCb-74" value="Создание экземпляра алгоритма поиска ошибок" style="rounded=0;whiteSpace=wrap;html=1;" vertex="1" parent="3">
          <mxGeometry x="200" y="392" width="75.5" height="78" as="geometry" />
        </mxCell>
        <mxCell id="5pYoA8IDufvgtYX2fxCb-75" value="Создание экземпляров нужных алгоритмов обработки" style="rounded=0;whiteSpace=wrap;html=1;" vertex="1" parent="3">
          <mxGeometry x="5.5" y="392" width="75.5" height="78" as="geometry" />
        </mxCell>
        <mxCell id="4" value="ErrorFinder" style="swimlane;whiteSpace=wrap" parent="1" vertex="1">
          <mxGeometry x="724.5" y="128" width="280" height="570" as="geometry" />
        </mxCell>
        <mxCell id="5pYoA8IDufvgtYX2fxCb-51" value="Запуск метода поиска с заданными параметрами" style="rounded=0;whiteSpace=wrap;html=1;" vertex="1" parent="4">
          <mxGeometry x="80" y="112" width="120" height="60" as="geometry" />
        </mxCell>
      </root>
    </mxGraphModel>
  </diagram>
</mxfile>
